<svg width="104" height="26" viewBox="0 0 104 26" fill="none" xmlns="http://www.w3.org/2000/svg">
<path d="M0.556818 25V1.72727H14.9886V4.75H4.06818V11.8409H13.9545V14.8523H4.06818V25H0.556818ZM17.1141 25V7.54545H20.5118V25H17.1141ZM18.83 4.85227C18.2391 4.85227 17.7315 4.6553 17.3073 4.26136C16.8906 3.85985 16.6823 3.38257 16.6823 2.82954C16.6823 2.26894 16.8906 1.79167 17.3073 1.39773C17.7315 0.996211 18.2391 0.795454 18.83 0.795454C19.4209 0.795454 19.9247 0.996211 20.3414 1.39773C20.7656 1.79167 20.9777 2.26894 20.9777 2.82954C20.9777 3.38257 20.7656 3.85985 20.3414 4.26136C19.9247 4.6553 19.4209 4.85227 18.83 4.85227ZM26.5606 14.6364V25H23.1628V7.54545H26.4242V10.3864H26.6401C27.0416 9.46212 27.6704 8.7197 28.5265 8.15909C29.3901 7.59848 30.4772 7.31818 31.7878 7.31818C32.9772 7.31818 34.0189 7.56818 34.9128 8.06818C35.8068 8.56061 36.5 9.29545 36.9924 10.2727C37.4848 11.25 37.731 12.4583 37.731 13.8977V25H34.3333V14.3068C34.3333 13.0417 34.0038 12.053 33.3447 11.3409C32.6856 10.6212 31.7803 10.2614 30.6287 10.2614C29.8409 10.2614 29.1401 10.4318 28.5265 10.7727C27.9204 11.1136 27.4394 11.6136 27.0833 12.2727C26.7348 12.9242 26.5606 13.7121 26.5606 14.6364ZM40.6406 25V1.72727H55.0724V4.75H44.1519V11.8409H54.0383V14.8523H44.1519V25H40.6406ZM60.5956 1.72727V25H57.1978V1.72727H60.5956ZM70.5989 25.3523C68.9625 25.3523 67.5345 24.9773 66.3148 24.2273C65.0951 23.4773 64.1481 22.428 63.4739 21.0795C62.7996 19.7311 62.4625 18.1553 62.4625 16.3523C62.4625 14.5417 62.7996 12.9583 63.4739 11.6023C64.1481 10.2462 65.0951 9.19318 66.3148 8.44318C67.5345 7.69318 68.9625 7.31818 70.5989 7.31818C72.2352 7.31818 73.6633 7.69318 74.883 8.44318C76.1027 9.19318 77.0496 10.2462 77.7239 11.6023C78.3981 12.9583 78.7352 14.5417 78.7352 16.3523C78.7352 18.1553 78.3981 19.7311 77.7239 21.0795C77.0496 22.428 76.1027 23.4773 74.883 24.2273C73.6633 24.9773 72.2352 25.3523 70.5989 25.3523ZM70.6102 22.5C71.6708 22.5 72.5496 22.2197 73.2466 21.6591C73.9436 21.0985 74.4587 20.3523 74.792 19.4205C75.133 18.4886 75.3034 17.4621 75.3034 16.3409C75.3034 15.2273 75.133 14.2045 74.792 13.2727C74.4587 12.3333 73.9436 11.5795 73.2466 11.0114C72.5496 10.4432 71.6708 10.1591 70.6102 10.1591C69.542 10.1591 68.6557 10.4432 67.9511 11.0114C67.2542 11.5795 66.7352 12.3333 66.3943 13.2727C66.061 14.2045 65.8943 15.2273 65.8943 16.3409C65.8943 17.4621 66.061 18.4886 66.3943 19.4205C66.7352 20.3523 67.2542 21.0985 67.9511 21.6591C68.6557 22.2197 69.542 22.5 70.6102 22.5ZM83.8607 25L78.7243 7.54545H82.2357L85.6561 20.3636H85.8266L89.2584 7.54545H92.7698L96.1789 20.3068H96.3493L99.747 7.54545H103.258L98.1334 25H94.6675L91.122 12.3977H90.8607L87.3152 25H83.8607Z" fill="white"/>
</svg>
