<svg width="226" height="216" viewBox="0 0 226 216" fill="none" xmlns="http://www.w3.org/2000/svg">
<path d="M97.7744 204.825C87.0699 210.011 74.3994 204.425 68.1858 195.975C67.2108 194.641 66.538 193.473 66.0903 192.334C55.8085 192.205 45.8494 185.446 41.2085 175.407C33.4137 158.527 40.2679 135.133 64.2289 121.218C64.8865 120.825 65.4826 121.834 64.8153 122.223C41.4753 135.777 34.6832 158.496 42.263 174.921C46.5835 184.264 56.1244 190.841 65.6744 191.161C64.1662 185.883 67.7955 181.581 71.9949 182.727C75.8245 183.79 75.8925 188.369 72.8108 190.709C71.0994 191.968 68.9539 192.252 67.3449 192.323C67.7539 193.239 68.3312 194.2 69.1244 195.286C75.0221 203.307 86.9858 208.641 96.9994 203.914C94.9894 201.423 93.0685 198.384 92.9494 195.211C92.7549 190.058 97.4433 186.384 101.811 189.432C106.649 192.804 106.052 200.067 98.8289 204.261C114.374 221.619 143.001 215.274 145.747 198.248C142.882 197.225 139.617 195.68 138.561 192.814C138.074 191.55 138.24 189.955 138.981 188.752C140.678 186 144.657 186.479 146.313 191.096C147.029 193.068 147.27 195.202 147.029 197.448C164.244 202.717 182.408 189.636 183.824 169.507C184.422 160.973 181.838 152.139 176.549 144.634C176.108 144.015 177.049 143.329 177.499 143.966C182.943 151.686 185.602 160.786 184.983 169.589C183.529 190.302 164.849 203.971 146.865 198.614C143.747 216.699 113.714 222.976 97.7744 204.825ZM94.113 195.166C94.2231 198.113 96.1741 201.083 98.0539 203.364C104.751 199.602 105.297 193.277 101.145 190.386C97.5641 187.886 93.9517 190.992 94.113 195.166ZM141.643 188.227C139.917 188.399 139.018 190.756 139.649 192.405C140.539 194.823 143.44 196.164 145.897 197.066C146.074 195.093 145.847 193.221 145.218 191.489C144.645 189.888 143.307 188.055 141.643 188.227ZM66.8971 191.173C69.2335 191.118 70.8949 190.673 72.113 189.777C74.3915 188.048 74.5868 184.658 71.6835 183.848C67.8977 182.806 65.5367 187.186 66.8971 191.173Z" fill="#0E2365"/>
<path d="M70.7821 157.007C69.7867 155.916 69.2367 154.446 69.1912 152.753C69.1162 150.162 70.1094 148.612 72.2298 148.019C77.6751 146.486 82.1352 149.333 82.2162 151.582C82.2389 152.257 81.9457 152.853 81.7071 153.332C80.8571 155.044 79.8003 157.171 77.8117 158.262C75.5428 159.492 72.536 158.931 70.7821 157.007ZM72.5435 149.139C70.9503 149.585 70.2935 150.657 70.3548 152.721C70.3821 153.705 70.6253 155.11 71.6412 156.221C73.0344 157.748 75.5003 158.201 77.2526 157.239C78.7957 156.396 79.7117 154.737 80.6662 152.814C81.1815 151.765 81.348 151.168 80.0957 150.23C78.8162 149.266 75.112 148.42 72.5435 149.139Z" fill="#0E2365"/>
<path d="M97.8382 166.603C94.5058 168.826 90.0902 167.508 88.2314 162.796C87.5541 161.082 87.3155 159.264 87.0837 157.505C86.9845 156.734 88.1366 156.606 88.2382 157.355C88.4587 159.043 88.6882 160.789 89.3132 162.368C91.1291 166.957 95.4408 167.457 97.8314 165.121C98.1656 164.791 98.7596 164.978 98.8155 165.471C99.2581 169.28 102.458 171.342 105.095 170.389C107.438 169.542 109.632 165.907 110.47 163.543C111.338 161.095 110.601 159.805 108.047 159.932C106.625 160.005 105.2 160.384 103.927 161.03C99.4247 163.314 101.04 157.453 98.4996 154.414C96.5928 152.146 93.0637 152.378 91.4382 154.773C91.0005 155.411 90.0448 154.755 90.4746 154.118C92.5442 151.075 96.9968 150.81 99.3905 153.666C100.864 155.427 101.057 157.786 101.738 159.798C102.331 161.517 103.374 159.007 107.986 158.768C111.413 158.6 112.7 160.735 111.565 163.934C110.592 166.681 108.194 170.509 105.488 171.484C102.485 172.558 98.8285 170.654 97.8382 166.603Z" fill="#0E2365"/>
<path d="M97.6472 165.353C98.704 162.019 100.297 158.912 102.384 156.112C102.848 155.493 103.775 156.196 103.315 156.807C101.309 159.503 99.7744 162.496 98.7563 165.703C98.5199 166.439 97.4136 166.081 97.6472 165.353Z" fill="#0E2365"/>
<path d="M193.049 139.184C192.307 139.276 192.164 138.092 192.953 138.025C205.817 136.883 217.543 154.908 222.41 136.566C226.221 122.1 223.628 106.534 215.476 94.8162C212.626 95.7182 199.919 93.9526 188.855 94.7457C184.11 95.0911 183.067 95.9535 182.521 96.1048C180.903 96.7662 179.733 97.2457 179.162 98.723C178.885 99.4404 177.799 99.0228 178.076 98.3048C181.322 89.8997 210.722 95.0337 215.251 93.6775C215.527 93.4013 215.945 93.461 216.144 93.7457C224.715 105.784 227.478 121.903 223.535 136.862C222.99 138.921 222.23 141.28 220.737 143.155C213.994 151.63 203.864 138.326 193.049 139.184Z" fill="#0E2365"/>
<path d="M175.446 108.795C175.144 105.731 175.051 102.668 175.306 99.6052L175.585 99.6516C176.675 99.5587 177.72 99.141 178.624 98.5144C178.831 102.856 181.891 106.223 184.519 109.119C181.302 109.628 178.591 108.632 175.446 108.795Z" fill="#1552FD"/>
<path d="M177.186 120.56C176.513 117.033 175.91 113.482 175.539 109.932C178.952 109.803 181.768 110.962 185.401 110.117C186.942 111.661 190.123 115.681 192.641 120.073C188.178 120.654 181.474 116.673 177.186 120.56Z" fill="#1552FD"/>
<path d="M182.082 132.487V132.464C180.451 129.546 178.871 129.918 177.557 122.532C177.511 122.323 177.464 122.091 177.441 121.882C181.411 117.648 187.751 121.992 193.221 121.163C194.892 124.203 196.284 127.382 197.352 130.677C197.352 130.7 197.352 130.7 197.375 130.723C194.688 132.32 191.262 131.983 189.021 131.837C187.245 131.723 183.501 131.425 182.082 132.487Z" fill="#1552FD"/>
<path d="M193.314 138.893C190.414 139.798 187.258 140.169 184.311 139.403C184.38 138.568 184.195 137.686 183.916 136.874C183.545 135.83 183.104 134.623 182.594 133.532C185.137 131.623 192.611 134.654 197.677 131.885C198.572 135.344 197.548 137.577 193.314 138.893Z" fill="#1552FD"/>
<path d="M193.142 138.337C197.499 136.968 198.083 134.848 196.79 130.857C190.391 111.159 178.478 107.889 178.038 98.5413C178.005 97.7814 179.162 97.7012 179.201 98.4867C179.611 107.25 191.356 110.341 197.894 130.498C199.365 135.01 198.541 137.865 193.492 139.446C192.741 139.677 192.422 138.562 193.142 138.337Z" fill="#0E2365"/>
<path d="M162.961 146.087C157.173 137.131 146.844 135.957 126.227 119.679V119.655C126.064 119.539 125.902 119.4 125.739 119.261C125.739 119.238 125.716 119.238 125.716 119.238L124.045 117.845C121.421 118.108 118.773 117.508 116.225 116.871C108.895 115.112 110.08 112.277 110.424 105.755C110.746 100.275 110.76 100.567 110.447 99.6289C110.261 99.6289 110.052 99.6522 109.867 99.6985C107.758 101.104 109.499 103.603 108.033 109.816C106.971 114.267 104.915 115.02 100.979 114.364C94.2148 113.144 85.4166 110.523 82.7855 104.177C82.2054 102.738 82.0199 100.998 82.9246 99.7217C85.2139 96.4068 103.386 93.8586 107.267 93.3169C107.899 93.2268 109.393 92.6936 109.774 93.2009C109.797 93.2009 109.797 93.2009 109.797 93.2009C111.068 91.9874 112.618 91.8828 114.368 92.0174C119.464 90.7138 124.658 89.6709 129.939 89.2096C133.174 87.8245 137.18 85.9928 137.574 82.3175C137.876 79.6025 135.764 77.073 133.235 76.0288C130.728 74.9846 127.874 75.1006 125.159 75.3326C111.576 76.5878 92.4514 81.8486 82.2312 86.0533C80.5369 103.85 68.6767 126.006 58.6091 140.361C62.0725 146.486 65.6028 147.566 72.2271 150.913C90.5587 160.109 99.2492 161.078 106.246 165.138C108.01 166.183 109.379 167.505 111.259 168.318C114.3 169.617 119.411 171.269 122.328 169.756C123.558 169.107 124.486 167.714 124.231 166.345C126.366 167.621 129.174 168.062 131.378 166.879C133.559 165.695 134.72 162.609 133.35 160.521C136.321 163.096 141.519 162.4 143.7 159.128C145.441 156.506 144.907 152.747 142.795 150.472C147.228 153.605 152.681 155.276 158.111 155.114C164.197 154.935 166.432 151.132 162.961 146.087ZM123.836 76.0752C124.811 75.7735 125.693 75.7967 126.644 75.8199C126.88 75.8556 127.301 75.7727 127.503 76.0752C128.617 77.6068 129.638 79.208 130.566 80.8323C130.931 81.4577 129.944 82.0962 129.545 81.4124C128.709 79.9041 127.758 78.4189 126.737 76.9802C126.128 76.9642 125.063 76.9046 124.184 77.1891C120.783 78.2416 120.571 82.2482 124.184 82.5496C125.205 82.6192 126.296 82.3407 127.341 82.0855C128.085 81.8561 128.369 83.0389 127.619 83.1993C125.264 83.8469 124.817 83.7099 124.091 83.7099C119.327 83.3314 119.076 77.6019 123.836 76.0752Z" fill="#81DBFD"/>
<path d="M142.83 150.494C142.189 150.052 141.564 149.558 140.963 149.051C141.688 149.402 142.313 149.896 142.83 150.494Z" fill="#81DBFD"/>
<path d="M111.445 114.666C109.58 114.853 107.598 114.33 105.783 113.854C108.243 112.155 108.772 106.457 108.707 103.504C108.673 101.687 108.682 100.16 110.354 99.4431C110.809 100.124 110.711 100.879 110.424 105.755C110.231 109.421 109.507 112.986 111.445 114.666Z" fill="#0E2365"/>
<path d="M163.173 147.553C159.474 140.91 150.559 136.321 143.445 132.394C134.068 126.841 125.827 120.276 125.682 119.878C125.661 119.875 125.6 119.837 125.495 119.787C124.119 119.139 122.788 118.787 122.745 117.944C122.717 117.252 123.729 117.084 123.905 117.755C124.251 118.009 125.4 118.409 125.989 118.723C126.221 118.863 126.532 118.996 126.711 119.321C147.904 135.989 158.214 136.688 163.998 146.646C169.18 145.991 174.384 144.691 180.334 142.569C183.231 141.479 184.477 140.302 183.366 137.062C182.136 133.644 181.744 132.778 180.325 130.987C178.169 128.256 177.673 126.5 176.986 122.634C175.464 114.635 173.706 105.165 175.034 96.9367C175.039 96.8799 175.016 96.814 174.995 96.7981C171.974 94.2479 166.037 95.3837 162.375 95.4072C148.819 95.1968 146.161 84.5541 114.514 92.5799C113.752 92.7562 113.492 91.6404 114.227 91.4526C145.702 83.4261 149.53 94.0416 162.391 94.2435C166.21 94.21 172.308 93.0079 175.752 95.9117C176.073 96.1912 176.23 96.614 176.189 97.0822C174.891 105.216 176.624 114.506 178.13 122.423C179.415 129.651 180.911 129.173 182.591 132.18C183.345 133.569 183.966 135.291 184.464 136.675C184.816 137.705 184.959 138.637 184.891 139.453C184.782 141.789 182.9 142.845 180.734 143.662C174.543 145.869 169.15 147.198 163.752 147.848C163.489 147.872 163.281 147.746 163.173 147.553Z" fill="#0E2365"/>
<path d="M158.346 103.145C156.119 99.2595 153.879 95.1056 150.35 92.475C149.729 92.0131 150.435 91.0856 151.046 91.5432C158.381 97.0146 160.145 108.328 168.073 112.405C170.443 113.623 173.189 114.043 175.816 113.58C176.546 113.42 176.796 114.591 176.016 114.725C167.634 116.201 162.551 110.438 158.346 103.145Z" fill="#0E2365"/>
<path d="M146.485 93.2235C146.461 93.2474 144.428 93.84 144.396 93.8501C136.807 96.053 136.176 96.6642 133.583 98.0966C132.005 97.447 130.635 96.4491 129.15 95.6369C131.275 93.4055 134.433 93.0747 137.504 92.9451C141.981 92.6736 145.873 93.0378 146.322 93.0378C146.415 93.0378 146.624 93.0843 146.485 93.2235Z" fill="#C3D7F9"/>
<path d="M116.084 117.435C113.752 116.876 111.204 116.025 110.114 113.835C109.292 112.123 109.533 110.8 110.027 102.171L110.059 101.742C110.195 100.048 109.935 100.062 109.893 99.8075C109.662 99.4716 109.821 99.0382 110.125 98.9098C110.741 98.6439 111.396 98.5666 112.036 98.5166C112.109 98.2052 112.102 97.8666 112.018 97.5484C111.543 95.6285 109.266 96.4382 109.409 93.9711C109.416 93.8507 109.425 93.6734 109.405 93.6189C108.56 92.937 110.473 91.8749 111.527 91.5961C113.574 91.0583 116.059 91.6713 119.955 92.278C126.23 93.2958 128.246 94.3762 130.977 96.0348C135.254 98.63 135.802 98.0093 138.775 99.1075C145.337 101.46 147.105 108.764 142.977 112.455C142.415 112.715 141.957 114.034 136.391 114.712C126.687 115.883 128.485 120.545 116.084 117.435ZM111.127 99.8075C111.38 100.679 111.24 101.16 111.098 104.01C110.693 112.138 109.309 114.608 116.361 116.305C123.447 118.068 125.168 117.403 129.059 115.608C130.241 115.064 131.466 114.501 132.759 114.151C135.992 113.274 139.723 113.747 142.202 111.585C145.609 108.537 144.218 102.295 138.377 100.201C137.668 99.9393 136.946 99.7484 136.182 99.5484C128.614 97.5558 131.035 95.2606 119.8 93.428C115.642 92.958 112.682 91.7658 110.534 93.3416C110.596 93.5893 110.582 93.837 110.571 94.0325C110.561 94.2098 110.552 94.3916 110.591 94.4916C110.753 94.8984 111.506 95.157 112.023 95.5416C113.72 96.7965 113.446 99.5913 112.505 99.6507C112.027 99.6825 111.555 99.7143 111.127 99.8075Z" fill="#0E2365"/>
<path d="M112.151 110.656C112.266 111.973 112.572 112.415 114.106 112.875C122.198 115.301 122.279 115.787 125.799 113.874C128.682 112.307 131.554 110.689 134.151 108.684C134.739 108.23 135.369 107.631 135.306 106.891C135.216 105.85 134.085 105.493 133.142 105.305C130.874 104.852 119.076 103.16 116.768 102.94C115.5 102.82 114.846 102.402 113.456 104.152C112.008 105.976 111.949 108.351 112.151 110.656Z" fill="#C3D7F9"/>
<path d="M133.795 108.221C135.312 107.056 134.937 106.256 133.027 105.876C131.787 105.627 115.878 103.154 115.161 103.446C114.468 103.736 113.447 104.793 112.988 106.299C112.765 107.052 111.654 106.689 111.874 105.962C112.118 105.156 112.497 104.424 112.997 103.79C114.557 101.83 115.488 102.237 116.822 102.36C119.071 102.576 131.031 104.288 133.254 104.735C133.768 104.837 134.313 104.96 134.804 105.251C135.427 105.624 135.831 106.219 135.883 106.84C135.974 107.885 135.14 108.656 134.504 109.144C133.898 109.608 133.184 108.691 133.795 108.221Z" fill="#0E2365"/>
<path d="M115.367 94.5548C115.248 94.5235 115.018 94.5498 114.963 94.6824C114.874 94.8959 115.302 95.7303 115.404 96.0046C116.784 99.7173 116.508 101.266 125.949 101.83C130.72 102.116 131.403 102.171 131.687 101.844C131.942 101.551 131.777 101.088 131.543 100.777C130.794 99.7817 129.452 99.2411 129.013 98.0752C128.202 95.9211 130.343 96.7364 115.341 94.4695" fill="#C3D7F9"/>
<path d="M171.76 144.198C167.897 136.196 162.117 129.121 155.044 123.739C154.431 123.272 155.138 122.348 155.749 122.812C162.967 128.305 168.865 135.526 172.81 143.694C173.142 144.385 172.1 144.893 171.76 144.198Z" fill="#0E2365"/>
<path d="M104.313 94.3905C104.973 96.1398 104.34 99.2831 103.32 101.082C100.789 105.543 96.2444 106.273 91.1393 105.853C85.8579 105.419 84.7148 103.463 84.488 98.6214C86.8038 97.528 89.2694 96.9502 91.7644 96.3728C102.804 93.8179 102.499 93.8431 103.113 93.8601C103.549 93.8723 104.159 93.9823 104.313 94.3905Z" fill="#C3D7F9"/>
<path d="M91.0908 106.432C89.084 106.269 87.0363 105.914 85.6476 104.455C85.1225 103.903 85.9532 103.093 86.4931 103.655C87.609 104.83 89.409 105.128 91.1863 105.273C96.0181 105.68 100.399 105.05 102.814 100.796C103.361 99.8301 103.716 98.7733 103.866 97.6551C103.973 96.9034 105.124 97.0431 105.02 97.8097C104.848 99.0756 104.448 100.273 103.827 101.369C101.167 106.049 96.4144 106.876 91.0908 106.432Z" fill="#0E2365"/>
<path d="M106.364 104.65C106.554 104.836 106.869 104.893 107.098 104.759C107.648 104.436 107.497 103.438 106.845 103.349C106.166 103.256 105.947 104.243 106.364 104.65Z" fill="#0E2365"/>
<path d="M101.132 114.042C102.54 110.305 103.228 108.148 99.5544 109.88C96.6734 111.241 96.2769 110.552 94.2612 109.685C93.0044 109.142 91.4703 109.21 90.2589 109.846C89.5764 110.207 89.0359 109.177 89.7135 108.819C93.0836 107.042 95.5548 109.289 96.7067 109.46C98.6066 109.708 101.024 106.964 102.804 108.594C104.135 109.781 103.078 112.169 102.223 114.451C101.951 115.169 100.863 114.764 101.132 114.042Z" fill="#0E2365"/>
<path d="M103.168 115.167C100.256 115.167 90.9642 113.111 86.1976 109.407C83.1562 107.045 80.2759 102.451 82.4431 99.3892C83.2385 98.2688 84.5544 97.7324 85.7249 97.3211C95.2657 93.95 105.681 93.114 107.784 92.6165C111.331 91.7498 110.409 94.0599 110.584 94.4824C110.751 94.8883 111.495 95.1499 112.016 95.537C113.795 96.8598 113.395 99.5894 112.498 99.6461C107.415 99.945 110.405 102.329 108.602 109.948C107.851 113.107 106.414 115.167 103.168 115.167ZM86.1113 98.4165C85.0635 98.787 83.9908 99.2188 83.3931 100.062C82.4499 101.394 83.0385 103.237 83.334 103.969C85.8087 110.035 94.6269 112.659 101.091 113.785C104.738 114.419 106.503 113.762 107.47 109.68C108.838 103.898 107.319 101.43 109.05 99.6142C109.827 98.8006 110.932 98.5961 112.039 98.5097C112.209 97.7779 111.923 96.9165 111.32 96.4688C110.407 95.7912 109.305 95.6611 109.402 93.9665C109.409 93.8415 109.42 93.6551 109.398 93.6006C108.899 93.462 107.999 93.804 107.357 93.8938C100.55 94.9223 93.5577 95.7968 86.1113 98.4165Z" fill="#0E2365"/>
<path d="M143.17 130.782C151.461 123.057 162.709 118.416 174.031 118.048C174.813 118.028 174.83 119.185 174.068 119.212C163.022 119.568 152.052 124.096 143.966 131.632C143.393 132.159 142.612 131.303 143.17 130.782Z" fill="#0E2365"/>
<path d="M133.783 97.2822C137.099 95.2004 140.726 93.7504 144.567 92.9709C145.324 92.824 145.551 93.9592 144.799 94.1118C141.097 94.8618 137.599 96.2595 134.401 98.2686C133.742 98.6765 133.134 97.688 133.783 97.2822Z" fill="#0E2365"/>
<path d="M157.754 123.967C157.383 125.212 156.082 125.916 154.856 125.551C153.611 125.181 152.925 123.885 153.295 122.64C153.66 121.414 154.943 120.704 156.188 121.075C157.414 121.439 158.119 122.741 157.754 123.967Z" fill="#0E2365"/>
<path d="M154.176 114.999C153.805 116.244 152.504 116.948 151.278 116.584C150.033 116.213 149.347 114.917 149.717 113.672C150.082 112.447 151.365 111.736 152.61 112.107C153.836 112.472 154.541 113.773 154.176 114.999Z" fill="#0E2365"/>
<path d="M202.93 110.358C202.434 112.025 200.691 112.968 199.05 112.479C197.383 111.983 196.464 110.248 196.96 108.581C197.449 106.94 199.167 105.989 200.833 106.485C202.475 106.973 203.419 108.716 202.93 110.358Z" fill="#0E2365"/>
<path d="M154.211 134.528C156.857 132.607 159.795 131.173 162.945 130.264C163.673 130.037 164.016 131.168 163.268 131.382C160.25 132.253 157.432 133.628 154.893 135.469C154.275 135.922 153.586 134.979 154.211 134.528Z" fill="#0E2365"/>
<path d="M167.194 135.105C170.469 132.925 174.253 131.445 178.139 130.825C178.921 130.729 179.066 131.853 178.321 131.975C174.6 132.568 170.975 133.986 167.839 136.073C167.197 136.496 166.554 135.527 167.194 135.105Z" fill="#0E2365"/>
<path d="M114.432 160.657C113.734 160.341 114.207 159.276 114.914 159.598C118.512 161.225 121.851 163.352 124.841 165.921C125.085 166.13 125.112 166.498 124.903 166.741C123.984 167.825 122.821 164.451 114.432 160.657Z" fill="#0E2365"/>
<path d="M125.499 155.507C124.87 155.058 125.547 154.115 126.172 154.557C128.856 156.459 131.458 158.512 133.913 160.659C134.154 160.873 134.179 161.239 133.967 161.482C133.223 162.314 133.035 160.846 125.499 155.507Z" fill="#0E2365"/>
<path d="M142.532 151.257C139.912 149.016 136.773 147.341 133.455 146.414C132.715 146.202 133.023 145.09 133.769 145.291C137.248 146.266 140.539 148.023 143.287 150.371C143.873 150.871 143.117 151.757 142.532 151.257Z" fill="#0E2365"/>
<path d="M112.616 161.587C113.101 160.162 113.914 158.839 114.969 157.762C115.508 157.212 116.339 158.026 115.801 158.576C114.866 159.53 114.146 160.701 113.716 161.964C113.469 162.693 112.366 162.315 112.616 161.587Z" fill="#0E2365"/>
<path d="M123.95 155.825C124.382 154.78 124.97 153.811 125.697 152.943C126.196 152.358 127.083 153.101 126.588 153.693C125.938 154.468 125.411 155.334 125.022 156.271C124.735 156.982 123.651 156.536 123.95 155.825Z" fill="#0E2365"/>
<path d="M131.698 146.88C132.023 145.755 132.541 144.707 133.237 143.764C133.692 143.147 134.632 143.833 134.173 144.455C133.56 145.287 133.103 146.212 132.816 147.203C132.598 147.943 131.486 147.62 131.698 146.88Z" fill="#0E2365"/>
<path d="M216.519 142.496C218.131 137.435 219.435 130.08 216.494 123.785C213.496 117.37 207.178 113.605 200.949 110.321C200.42 110.044 200.607 109.241 201.206 109.226C209.21 109.023 215.473 102.126 214.908 94.1371C214.855 93.3934 216.016 93.2529 216.067 94.0553C216.605 101.649 211.352 108.885 203.199 110.205C209.012 113.36 214.699 117.195 217.549 123.294C220.649 129.93 219.304 137.592 217.629 142.851C217.393 143.584 216.286 143.229 216.519 142.496Z" fill="#0E2365"/>
<path d="M152.474 113.766C155.013 111.085 158.14 108.878 161.515 107.385C162.211 107.069 162.695 108.136 161.988 108.448C158.751 109.88 155.753 111.996 153.319 114.566C152.8 115.117 151.942 114.331 152.474 113.766Z" fill="#0E2365"/>
<path d="M84.1785 85.2642C80.856 81.1112 75.4274 82.9686 56.1461 76.7246C42.9892 72.5419 41.7854 70.1097 37.1174 67.6511C34.8443 66.4577 32.8578 66.0951 30.5967 68.3009C27.0462 71.6888 24.8647 76.6781 22.4283 80.8783C6.40125 108.694 -5.70536 125.168 11.9164 131.815C21.2502 135.298 8.28018 130.962 49.0915 146.109C50.809 146.759 52.6421 147.409 54.4751 147.13C56.9058 146.742 58.5365 143.897 60.0913 141.956C61.7156 139.983 63.1078 137.825 64.5698 135.736C72.133 124.924 77.1585 112.488 81.4868 100.116C82.6935 96.6118 84.0161 93.0845 85.0603 89.534C85.5478 87.8865 85.13 86.4245 84.1785 85.2642ZM21.036 126.431C19.6667 127.661 17.5087 127.87 15.9541 126.941C12.3107 124.714 14.5151 118.959 18.437 118.634C22.4051 118.309 23.6118 124.134 21.036 126.431ZM34.8665 133.462C31.2233 131.235 33.4277 125.503 37.3264 125.178C41.3177 124.853 42.5245 130.678 39.9254 132.975C38.5796 134.182 36.4214 134.414 34.8665 133.462ZM45.8659 135.922C42.0007 140.753 42.1186 140.656 41.7585 140.656C41.287 140.656 40.9818 140.078 41.3177 139.705C42.5477 138.219 43.7544 136.711 44.9612 135.203C45.417 134.575 46.3656 135.312 45.8659 135.922ZM68.0971 83.895C68.1526 83.1186 69.3126 83.2162 69.2574 83.988C69.0948 85.8908 68.8628 87.84 68.5146 89.7894C68.3834 90.5762 67.2691 90.3081 67.3776 89.6037C67.7025 87.6776 67.9345 85.7515 68.0971 83.895ZM52.0387 127.568C51.5892 128.198 50.6361 127.539 51.0872 126.918C56.8746 118.511 56.4882 117.499 57.3991 118.031C57.6778 118.193 57.7707 118.541 57.6081 118.819C56.3583 120.984 54.8625 123.447 52.0387 127.568ZM62.3422 109.584C62.0573 110.295 60.9547 109.806 61.2977 109.12C62.7365 105.917 63.9664 102.715 64.9641 99.5356C65.1833 98.8242 66.304 99.1498 66.0779 99.8838C65.057 103.086 63.8038 106.358 62.3422 109.584Z" fill="#1552FD"/>
<path d="M69.3047 69.7793V47.1884C69.3047 46.4193 70.4683 46.4186 70.4683 47.1884V69.7793C70.4683 70.5485 69.3047 70.5491 69.3047 69.7793Z" fill="#0E2365"/>
<path d="M161.914 73.8021V56.3203C161.914 55.5511 163.078 55.5505 163.078 56.3203V73.8021C163.078 74.5712 161.914 74.5719 161.914 73.8021Z" fill="#0E2365"/>
<path d="M160.506 11.9234V2.28023C160.506 1.51109 161.669 1.51043 161.669 2.28023V11.9234C161.669 12.6925 160.506 12.6932 160.506 11.9234Z" fill="#0E2365"/>
<path d="M69.9062 15.6912V0.872999C69.9062 0.103859 71.0699 0.103204 71.0699 0.872999V15.6912C71.0699 16.4603 69.9062 16.461 69.9062 15.6912Z" fill="#0E2365"/>
<path d="M120.983 1.90918C102.65 1.90918 87.7754 16.7375 87.7754 35.07C87.7754 53.4488 102.65 68.2772 120.983 68.2772C139.315 68.2772 154.19 53.4488 154.19 35.07C154.19 16.7375 139.315 1.90918 120.983 1.90918ZM120.983 54.2842C110.378 54.2842 101.792 45.6982 101.792 35.0932C101.792 24.4882 110.378 15.9021 120.983 15.9021C131.588 15.9021 140.174 24.4882 140.174 35.0932C140.174 45.6982 131.588 54.2842 120.983 54.2842Z" fill="#01B990"/>
<path d="M153.602 35.0749C153.602 17.109 138.97 2.49078 120.983 2.49078C120.214 2.49078 120.214 1.32715 120.983 1.32715C139.611 1.32715 154.765 16.4658 154.765 35.0749C154.765 35.844 153.602 35.8447 153.602 35.0749Z" fill="#0E2365"/>
<path d="M120.983 68.857C102.354 68.857 87.1992 53.7024 87.1992 35.0751C87.1992 34.306 88.3629 34.3054 88.3629 35.0751C88.3629 53.0615 102.997 67.6933 120.983 67.6933C121.752 67.6933 121.753 68.857 120.983 68.857Z" fill="#0E2365"/>
<path d="M120.984 54.8658C110.081 54.8658 101.211 45.9953 101.211 35.093C101.211 24.1908 110.081 15.3203 120.984 15.3203C131.886 15.3203 140.756 24.1908 140.756 35.093C140.756 45.9953 131.886 54.8658 120.984 54.8658ZM120.984 16.4839C110.722 16.4839 102.375 24.8317 102.375 35.093C102.375 45.3544 110.722 53.7021 120.984 53.7021C131.245 53.7021 139.593 45.3544 139.593 35.093C139.593 24.8317 131.245 16.4839 120.984 16.4839Z" fill="#0E2365"/>
<path d="M117.533 45.4366C115.51 42.3639 113.047 39.623 110.212 37.2866C109.622 36.799 110.352 35.8989 110.953 36.3866C113.569 38.5457 115.878 41.0366 117.831 43.8071C120.447 36.2116 125.853 29.623 132.815 25.6048C133.474 25.2202 134.067 26.2239 133.397 26.6139C126.342 30.6843 120.94 37.4912 118.576 45.2843C118.433 45.7534 117.808 45.8491 117.533 45.4366Z" fill="#0E2365"/>
<path d="M29.4747 127.182C29.452 124.523 31.3383 121.943 34.1701 120.766C36.3201 119.871 38.9247 119.718 42.127 120.305C42.8783 120.445 42.6836 121.579 41.9179 121.45C38.9406 120.905 36.552 121.034 34.6156 121.839C32.2542 122.823 30.6201 125.016 30.6383 127.173C30.6438 127.949 29.4802 127.955 29.4747 127.182Z" fill="#0E2365"/>
<path d="M10.7036 119.185C10.8219 116.059 13.8396 112.793 20.0286 113.203C20.8607 113.256 20.642 114.508 19.9559 114.362C14.4767 114 11.9614 116.725 11.8672 119.23C11.8393 120.001 10.6762 119.962 10.7036 119.185Z" fill="#0E2365"/>
<path d="M18.4929 57.5613C17.1136 52.5629 15.3617 46.7149 10.1838 44.7908C5.40732 43.0278 0.889693 46.5682 2.02242 50.9612C2.45196 52.6249 3.78151 54.0499 5.41333 54.5931C6.14581 54.8391 5.77403 55.9406 5.04515 55.6976C0.691271 54.2496 -0.73755 48.7298 2.37469 45.3544C5.8185 41.6137 12.856 42.3724 16.7701 49.4362C18.1383 51.9067 18.8906 54.6249 19.6156 57.2522C19.8181 57.9963 18.7021 58.3066 18.4929 57.5613Z" fill="#0E2365"/>
<path d="M24.9922 55.3276L21.7399 48.7481C21.3963 48.0608 22.4489 47.5378 22.7808 48.2344L26.0331 54.814C26.3758 55.4994 25.3282 56.0224 24.9922 55.3276Z" fill="#0E2365"/>
<path d="M32.5296 56.8299C29.4705 51.6731 28.9751 45.0208 31.2387 39.4663C33.0697 34.9708 37.0968 34.6532 38.7591 39.489C39.7273 42.3049 40.0501 45.3572 39.691 48.3163C39.5978 49.0833 38.4445 48.9381 38.5364 48.1754C38.8728 45.3913 38.5705 42.5185 37.6591 39.8663C34.6546 31.1257 27.0121 45.2535 33.5296 56.2345C33.9216 56.8988 32.9248 57.4886 32.5296 56.8299Z" fill="#0E2365"/>
<path d="M178.211 202.589C192.026 196.588 200.74 182.616 200.031 167.555C199.997 166.76 201.159 166.779 201.195 167.5C201.921 183.022 192.948 197.457 178.674 203.657C177.965 203.958 177.506 202.898 178.211 202.589Z" fill="#0E2365"/>
<path d="M207.013 186.891C209.913 184.625 212.174 181.466 213.385 177.995C213.637 177.277 214.739 177.645 214.485 178.377C213.201 182.057 210.801 185.407 207.731 187.809C207.116 188.28 206.41 187.363 207.013 186.891Z" fill="#0E2365"/>
</svg>
