<svg width="186" height="224" viewBox="0 0 186 224" fill="none" xmlns="http://www.w3.org/2000/svg">
<path d="M10.9551 213.557C8.5716 209.39 8.05295 204.211 9.4127 198.154C10.6191 192.683 13.979 185.24 23.1184 180.858C23.8227 180.536 24.2989 181.573 23.619 181.9C14.8968 186.078 11.6925 193.182 10.5402 198.404C9.24583 204.172 9.72163 209.075 11.9541 212.98C18.113 223.591 34.9038 224.278 46.0515 219.075C41.6205 216.591 38.929 212.12 38.795 208.067C38.5718 201.142 49.2782 198.424 54.4355 202.925C59.6925 207.579 55.4665 215.153 48.656 219.039C54.1852 221.26 60.8869 220.546 65.6833 217.136C69.1493 214.672 71.4797 209.889 75.0076 207.023C78.5095 204.134 82.5054 202.673 86.2103 202.876C91.6181 203.186 96.0105 206.875 100.446 209.857C133.938 232.48 175.922 211.425 161.005 206.775C147.769 202.779 140.762 209.246 131.181 208.833C125.192 208.569 119.458 205.284 116.217 200.258C115.284 198.833 114.33 196.713 115.101 194.724C115.996 192.395 118.781 191.623 120.799 191.247C122.932 190.841 125.05 190.543 127.091 190.363C127.848 190.278 127.955 191.448 127.19 191.513C125.19 191.689 123.111 191.982 121.014 192.381C119.266 192.708 116.867 193.348 116.179 195.141C115.584 196.675 116.398 198.427 117.185 199.629C120.229 204.348 125.609 207.433 131.229 207.679C140.21 208.112 147.947 201.61 161.344 205.672C162.701 206.094 164.568 206.851 165.161 208.576C167.948 217.021 130.161 231.32 99.801 210.813C95.5588 207.966 91.2212 204.32 86.1426 204.03C82.7557 203.841 79.0237 205.21 75.7382 207.916C72.2164 210.775 70.1424 215.379 66.3507 218.079C60.9907 221.894 53.3869 222.544 47.3458 219.729C35.3897 225.791 17.4646 224.775 10.9551 213.557ZM39.9495 208.031C40.0896 212.33 43.327 216.44 47.3346 218.444C53.7715 215.164 58.4421 208.012 53.6733 203.793C49.2836 199.962 39.7595 202.105 39.9495 208.031Z" fill="#0E2365"/>
<path d="M11.3009 171.613L5.22971 178.436C2.51754 181.484 17.6681 198.889 20.6092 195.894L27.2084 189.174C21.9814 184.17 16.8886 177.837 11.3009 171.613Z" fill="#FBD072"/>
<path d="M22.5624 164.476C21.2764 164.905 20.1232 164.09 19.8148 162.814C19.2734 160.613 21.3875 158.566 23.1628 159.535C25.0104 160.536 24.6791 163.758 22.5624 164.476Z" fill="#1552FD"/>
<path d="M25.7489 146.835L7.36829 167.986C2.8654 173.158 24.5019 198.651 29.5586 193.617L48.9782 174.221C41.0347 170.919 28.1732 155.633 25.7489 146.835ZM21.8692 165.746C19.9686 165.746 18.5673 164.104 18.5673 162.121C18.5673 159.226 21.4351 157.28 23.7166 158.519C26.9468 160.264 25.5529 165.746 21.8692 165.746ZM26.0257 176.207C25.4967 176.207 25.2432 175.603 25.6102 175.237L33.5533 167.063C34.0802 166.536 34.8914 167.307 34.3848 167.871C26.109 176.263 26.5289 176.207 26.0257 176.207ZM36.1398 173.828C31.9916 177.32 32.2807 177.269 31.9139 177.269C31.3363 177.269 31.1489 176.577 31.5444 176.253L35.3776 172.951C35.9472 172.438 36.6997 173.324 36.1398 173.828Z" fill="#1552FD"/>
<path d="M23.7309 184.864C16.4879 178.2 8.25727 166.761 11.3037 163.268C11.8102 162.691 12.6752 163.454 12.1742 164.025C10.1424 166.355 16.4857 176.628 24.5111 184.016C25.0762 184.532 24.2849 185.384 23.7309 184.864Z" fill="#0E2365"/>
<path d="M34.0442 188.269L48.5008 173.789C49.0472 173.249 49.8545 174.068 49.3171 174.606L34.8605 189.085C34.325 189.62 33.5034 188.809 34.0442 188.269Z" fill="#0E2365"/>
<path d="M25.191 146.989C24.3904 144.211 24.6565 142.202 25.987 141.022C37.6858 128.647 41.7267 108.839 39.9024 72.6967C39.8655 71.9528 41.0119 71.8439 41.0569 72.638C42.897 109.132 38.7659 129.184 26.7897 141.852C20.7495 147.213 46.5568 178.36 53.227 173.904C65.8188 160.458 84.8575 158.943 115.584 160.85C116.302 160.896 116.329 161.987 115.512 162.005C85.1371 160.106 66.3465 161.579 53.9712 174.777C46.9573 179.586 27.9999 157.177 25.191 146.989Z" fill="#0E2365"/>
<path d="M101.693 98.3206C76.9398 70.3344 49.9697 56.6876 42.0032 67.3097C34.4987 77.3308 46.8291 105.317 69.0429 130.301C91.1636 155.17 116.633 169.764 126.585 162.652C137.138 155.101 126.308 126.168 101.693 98.3206ZM63.3392 109.612C66.9137 105.293 72.1669 103.031 76.778 103.031C71.1439 98.0204 65.071 93.61 58.6748 89.9155C57.9959 89.5197 58.6362 88.5308 59.252 88.9224C66.1103 92.8943 72.5987 97.6509 78.5791 103.054C78.6254 103.054 78.6485 103.054 78.6947 103.077C80.4629 103.077 84.2165 104.067 86.361 105.387C91.9817 108.203 96.7288 115.426 96.7288 123.651C101.809 130.879 106.104 138.66 109.429 146.788C109.709 147.519 108.638 147.907 108.366 147.227C105.249 139.63 101.301 132.357 96.6364 125.522C96.1839 130.041 93.9973 134.513 91.256 137.252C91.1607 137.442 89.7364 138.664 89.5704 138.799C76.5246 127.48 64.2166 111.356 63.3392 109.612Z" fill="#C3D7F9"/>
<path d="M120.095 165.114C107.713 165.114 87.037 151.78 68.4245 130.852C45.6561 105.256 33.8062 77.2308 41.446 67.0519C43.2568 64.6413 45.9853 63.347 49.5594 63.2027C62.1918 62.6615 83.3051 76.6558 102.123 97.936C102.627 98.5103 101.764 99.2748 101.257 98.7027C82.9781 78.0314 62.618 64.3437 50.2517 64.3437C50.033 64.3437 49.8188 64.3482 49.6045 64.3572C30.2799 65.1313 42.9003 100.42 69.2859 130.085C91.5041 155.066 116.471 169.204 126.143 162.279C132.766 157.53 130.691 143.523 120.724 125.722C120.357 125.067 121.344 124.479 121.73 125.158C132.008 143.513 133.956 158.096 126.815 163.217C125.024 164.501 122.751 165.114 120.095 165.114Z" fill="#0E2365"/>
<path d="M118.411 152.446C112.248 157.128 95.3389 144.043 89.5706 138.799C89.7366 138.665 91.1609 137.443 91.2562 137.252C94.0426 134.468 96.1899 129.984 96.6366 125.522C101.301 132.357 105.249 139.631 108.367 147.227C108.629 147.885 109.715 147.534 109.429 146.789C106.104 138.661 101.809 130.879 96.729 123.652C96.729 112.761 88.8228 104.188 79.6645 103.17C79.3415 103.124 79.0179 103.078 78.6949 103.078C78.6486 103.055 78.6255 103.055 78.5793 103.055C72.5988 97.6513 66.1104 92.8947 59.2522 88.9228C58.6372 88.5317 57.9945 89.5192 58.675 89.9159C65.0712 93.6104 71.1441 98.0208 76.7781 103.032C72.1317 103.032 66.8937 105.318 63.3394 109.612C52.8332 94.7649 47.5684 81.4645 51.2398 76.8001C55.4191 71.5584 69.551 78.8786 85.2295 93.7721C92.7397 100.924 99.5966 108.725 105.734 117.094C118.042 133.973 123.514 148.567 118.411 152.446Z" fill="#0E2365"/>
<path d="M91.5119 141.216C82.7382 134.033 71.5104 122.159 62.9572 110.086L63.336 109.615L62.8647 109.948C36.5085 72.6703 51.7696 61.1547 85.6287 93.3495C93.2493 100.592 100.409 108.834 106.21 116.763C119.02 134.343 124.067 148.865 118.768 152.901C112.573 157.594 97.476 146.199 91.5119 141.216ZM63.8998 109.418C82.4422 135.602 110.648 157.611 118.069 151.981C122.755 148.411 117.496 134.21 105.276 117.444C99.6126 109.698 92.517 101.491 84.8349 94.1883C72.401 82.3655 60.9052 75.3277 54.7987 75.7043C53.4345 75.799 52.3927 76.2884 51.7004 77.1565C48.3608 81.4026 53.2247 94.3123 63.8073 109.281L63.4285 109.752L63.8998 109.418Z" fill="#0E2365"/>
<path d="M37.4677 138.366C41.8852 133.879 45.5653 128.011 48.109 121.4C48.3864 120.676 49.4598 121.108 49.1868 121.815C46.5868 128.573 42.8188 134.575 38.2885 139.178C37.7457 139.721 36.9331 138.906 37.4677 138.366Z" fill="#0E2365"/>
<path d="M45.761 138.312C47.1252 136.4 48.4061 134.334 49.5719 132.174C49.9322 131.502 50.9492 132.049 50.5866 132.72C49.4005 134.925 48.0926 137.031 46.699 138.984C46.2574 139.602 45.311 138.935 45.761 138.312Z" fill="#0E2365"/>
<path d="M89.1903 139.234C79.6827 130.988 69.767 119.735 62.9604 110.084C62.9153 110.055 62.8567 109.94 62.8251 109.877C62.7236 109.671 62.7485 109.421 62.895 109.245C72.9667 97.0704 92.955 101.907 96.7602 118.651C98.501 126.363 95.8221 134.447 89.9344 139.245C89.7226 139.421 89.405 139.422 89.1903 139.234ZM64.0654 109.649C70.9212 119.31 80.5165 130.121 89.5759 138.039C94.8683 133.482 97.2428 126.029 95.6327 118.906C92.1165 103.421 73.7589 98.4973 64.0654 109.649Z" fill="#0E2365"/>
<path d="M170.579 56.0391C173.747 50.9572 174.35 44.4339 173.289 38.5405C171.066 26.2104 162.539 19.2656 155.108 20.3852C155.06 20.3835 155.029 20.3463 154.976 20.3587C153.868 20.5551 152.275 21.1312 151.017 21.9406C140.91 12.2456 126.367 4.4416 113.197 9.40689C112.781 6.85257 110.908 4.17536 107.065 2.29189C98.9457 -1.68672 91.3484 1.83272 89.7736 7.60686C78.0218 4.08121 69.8797 12.4886 72.1442 19.2921C69.9862 23.9351 70.1714 31.6319 74.2075 37.5664C74.6371 38.1933 75.5943 37.5546 75.1636 36.917C71.7767 31.9394 71.143 25.4798 72.823 20.6879C74.8964 23.7699 79.4985 23.987 80.9161 20.4196C82.6513 16.012 76.3385 13.2589 72.9943 17.8354C72.2736 11.9916 79.394 5.64616 89.5458 8.74336C88.8812 13.9219 92.9711 17.5459 95.3298 16.5862C98.0967 15.4736 97.3094 10.3421 90.8695 7.96765C92.2994 2.76769 99.1515 -0.301324 106.555 3.32918C110.197 5.11117 111.834 7.58318 112.106 9.82406C98.9813 15.5105 85.5982 35.4293 90.4771 68.1212C90.9326 71.1835 91.4671 74.4487 92.2608 77.5786C92.8764 80.0072 94.1189 80.6003 95.8417 81.4211C111.239 88.8583 127.606 92.3836 146.7 89.2503C148.486 92.8115 150.369 96.5034 151.093 100.408C152.79 109.879 146.731 115.77 138.301 114.964C142.849 107.865 142.223 96.977 133.942 97.4404C124.087 97.9861 123.801 113.348 136.251 115.821C132.612 120.181 124.878 121.275 119.212 118.224C113.431 115.151 109.679 108.153 100.059 109.29C97.56 109.561 95.1742 110.4 93.156 111.717C92.5114 112.137 93.1591 113.102 93.7874 112.682C95.6523 111.466 97.8644 110.691 100.189 110.438C109.288 109.358 112.614 116.03 118.669 119.241C124.731 122.51 133.431 121.518 137.552 116.035C138.296 116.148 139.112 116.197 139.969 116.17C149.262 115.907 153.783 108.866 152.23 100.2C151.497 96.2582 149.682 92.6249 147.889 89.0516C154.226 87.9086 160.299 85.9707 164.702 83.0221C167.53 81.1279 169.841 78.6272 171.771 75.3732C173.736 72.0587 172.943 67.9775 172.317 64.1818C171.868 61.4082 171.283 58.6929 170.579 56.0391ZM79.8427 19.9934C78.6591 22.9683 74.6405 22.2106 73.4048 19.353C75.9095 14.661 81.1224 16.7547 79.8427 19.9934ZM95.0187 12.3062C95.4742 12.9692 95.7019 13.5916 95.6974 14.153C95.6608 17.4972 90.1254 14.6311 90.6598 9.1222C92.6261 9.87987 94.0896 10.9465 95.0187 12.3062ZM137.031 114.786C134.165 114.332 131.687 113.027 130.023 111.083C127.567 108.246 127.188 103.863 129.152 101.107C131.195 98.2933 135.959 97.6143 138.303 100.189C141.403 103.567 139.758 110.846 137.031 114.786ZM144.982 41.0515C145.047 40.888 145.031 40.7149 144.944 40.5593C144.482 34.3771 146.088 27.178 150.912 23.4477C159.483 31.9284 165.863 43.1142 169.325 55.8584C162.438 66.1366 146.734 60.0438 144.982 41.0515ZM170.126 54.4612C166.567 42.0518 160.27 31.1386 151.879 22.7794C164.658 15.0491 178.445 38.8822 170.126 54.4612ZM150.064 22.623C145.173 26.5117 143.407 33.7826 143.748 40.044C141.739 39.6179 139.777 40.1168 138.18 41.4416C133.629 26.2935 119.511 21.1222 112.367 32.8535C109.846 37.1173 109.066 42.086 109.493 47.0615C106.458 44.877 101.754 42.0854 97.9834 39.8293C98.9716 34.4884 100.66 29.3389 103.47 24.6736C108.656 16.0726 118.381 9.67918 128.173 9.7908C136.244 11.7154 144.075 16.9168 150.064 22.623ZM117.528 63.0836C113.831 59.3689 111.698 54.2691 110.896 48.8807C111.089 48.6558 111.133 48.3051 110.831 48.0633C110.818 48.0534 110.801 48.0416 110.789 48.0317C108.806 31.6341 121.044 21.3872 131.333 31.7102C136.441 36.8428 139.119 45.4758 138.081 53.4707C136.512 50.1193 134.191 47.1001 131.433 44.6572C128.472 41.9337 126.163 42.9648 125.522 46.597C126.607 46.9431 127.553 48.167 127.854 49.6677C128.358 52.2852 126.634 53.7419 125.568 53.3856C125.983 55.556 126.769 58.0269 127.461 59.9898C129.707 56.2784 133.858 54.5283 137.825 55.0486C135.514 66.7129 125.658 71.253 117.528 63.0836ZM170.779 74.7847C168.937 77.8875 166.74 80.2665 164.061 82.0615C155.398 87.863 139.935 89.6664 129.197 89.1308C118.663 88.6063 109.377 86.226 100.009 82.1173C97.3845 69.6648 95.6936 53.5884 97.7483 41.0329C101.835 43.4761 106.887 46.4921 109.666 48.6332C109.729 49.0916 109.794 49.551 109.879 50.0183C112.113 62.4235 120.676 69.3835 128.121 68.1928C128.142 68.1906 128.153 68.2092 128.176 68.2047C138.117 66.3408 141.108 52.7909 138.529 42.6649C140.018 41.2169 141.896 40.767 143.844 41.295C144.872 51.932 152.552 63.7827 162.476 61.9719C165.297 61.4637 167.774 59.8342 169.706 57.3087C170.288 59.6172 170.788 61.968 171.176 64.3667C171.755 67.8769 172.563 71.7709 170.779 74.7847Z" fill="#0E2365"/>
<path d="M158.495 41.8172C156.76 38.3505 154.5 38.6603 153.022 41.4018C155.164 43.2373 154.125 48.4356 151.152 47.2438C150.921 49.2524 150.875 51.6078 150.898 53.5245C153.963 51.0728 158.318 50.9659 161.751 53.432C161.635 49.4374 160.411 45.4196 158.495 41.8172ZM154.213 69.4948C153.113 71.5107 151.927 73.0012 150.585 74.0475C146.753 77.0326 142.284 75.8403 141.162 72.6923C140.91 71.9735 139.815 72.3611 140.075 73.0802C141.782 77.8685 150.03 79.5518 155.228 70.0495C155.595 69.3707 154.575 68.8307 154.213 69.4948Z" fill="#0E2365"/>
<path d="M80.8412 37.4989C80.0102 33.8047 76.3617 31.4956 72.7131 32.3035C69.0189 33.1119 66.6867 36.7604 67.5177 40.4546C68.3261 44.1263 71.9743 46.4354 75.6688 45.627C79.3174 44.8191 81.6496 41.1475 80.8412 37.4989ZM72.8056 41.6092C72.2716 41.0758 73.1231 40.2538 73.6371 40.8242C74.8252 42.1157 76.9581 41.4382 77.216 39.7852C77.3894 38.9734 78.48 39.2594 78.3706 39.9698C77.9021 42.6777 74.5182 43.5196 72.8056 41.6092Z" fill="#FCA8D7"/>
<path d="M155.515 199.088C141.471 198.986 126.552 196.74 126.552 192.774C126.552 175.48 126.498 176.612 126.746 176.369C126.854 176.263 126.998 176.202 127.152 176.202C134.265 176.444 182.941 176.203 183.174 176.202C183.486 176.202 183.751 176.454 183.751 176.779C183.751 176.779 183.774 192.751 183.774 192.774C183.774 196.743 169.214 198.989 155.515 199.088ZM127.729 177.359L127.706 192.774C127.706 194.844 138.284 197.809 155.515 197.933C172.305 197.812 182.619 194.846 182.619 192.774L182.597 177.359L154.577 177.487L127.729 177.359Z" fill="#0E2365"/>
<path d="M183.196 177.04C183.196 180.213 170.657 182.777 155.162 182.777C139.668 182.777 127.129 180.213 127.129 177.04C127.129 173.867 139.668 171.281 155.162 171.281C170.657 171.281 183.196 173.867 183.196 177.04Z" fill="#01B990"/>
<path d="M182.619 177.041C182.619 174.876 172.174 171.859 155.162 171.859C154.399 171.859 154.399 170.704 155.162 170.704C169.033 170.704 183.774 172.925 183.774 177.041C183.774 177.804 182.619 177.804 182.619 177.041Z" fill="#0E2365"/>
<path d="M155.164 183.354C141.293 183.354 126.553 181.142 126.553 177.04C126.553 176.277 127.707 176.277 127.707 177.04C127.707 179.149 137.485 182.2 155.164 182.2C155.927 182.2 155.928 183.354 155.164 183.354Z" fill="#0E2365"/>
<path d="M91.942 123.377C90.1259 116.331 83.0228 112.063 76.0354 113.631C75.2939 113.799 75.0339 112.671 75.7829 112.503C83.3543 110.808 91.0796 115.408 93.0604 123.088C93.2505 123.832 92.1333 124.11 91.942 123.377Z" fill="#0E2365"/>
<path d="M173.234 126.561C171.482 117.78 168.851 109.139 165.416 100.877C165.121 100.179 166.184 99.7236 166.481 100.435C169.947 108.765 172.599 117.48 174.366 126.335C174.518 127.086 173.381 127.306 173.234 126.561Z" fill="#0E2365"/>
<path d="M178.319 105.903L171.157 99.993C170.571 99.5087 171.302 98.6162 171.892 99.1046L179.054 105.01C179.641 105.495 178.915 106.387 178.319 105.903Z" fill="#0E2365"/>
<path d="M168.172 90.2946C167.422 90.1651 167.616 89.0195 168.37 89.1581C173.705 90.0849 179.133 90.4502 184.541 90.2247C185.426 90.3979 185.234 91.3519 184.586 91.3792C179.119 91.5932 173.676 91.2501 168.172 90.2946Z" fill="#0E2365"/>
<path d="M4.3161 81.5901C11.6899 78.4602 18.7615 74.5568 25.3527 69.9747C16.175 67.3387 7.57454 62.1207 1.02159 55.1911C0.607953 54.7573 1.06021 54.0462 1.6372 54.2508C12.9008 58.3348 27.6867 61.6629 28.176 61.1555C28.2707 61.0496 28.185 60.6842 27.7701 60.1318C24.4372 55.6963 22.879 49.9889 23.4969 44.4733C23.5493 43.9829 24.1817 43.7607 24.5161 44.1711C28.7961 49.3823 33.7705 53.9847 39.2997 57.8452C39.9215 58.2832 39.2701 59.2254 38.6368 58.7923C33.412 55.1415 28.6721 50.8413 24.5364 45.9931C24.3335 50.7759 25.815 55.6083 28.6946 59.4372C30.097 61.3103 29.1545 62.6676 27.2018 62.3168C19.2215 60.8849 11.3065 58.8239 3.63285 56.1811C10.0798 62.3529 18.227 66.9328 26.8343 69.1832C27.3084 69.3116 27.421 69.9276 27.0214 70.2138C22.2071 73.6345 17.1311 76.6968 11.8612 79.3599L26.4712 75.0462C27.2005 74.8301 27.5335 75.9387 26.7959 76.1556L4.70396 82.677C4.01176 82.8789 3.65104 81.8721 4.3161 81.5901Z" fill="#0E2365"/>
<path d="M1.24855 74.2506C1.0149 73.1758 2.36675 73.8727 10.8863 71.1071C11.602 70.8633 11.9747 71.9699 11.2426 72.2031C8.18935 73.1975 5.05719 74.0341 1.9318 74.6948C1.62658 74.7626 1.31432 74.5663 1.24855 74.2506Z" fill="#0E2365"/>
<path d="M16.9403 51.4817C14.9582 49.4274 13.0369 47.2784 11.2285 45.0934C10.7434 44.5059 11.631 43.7643 12.1169 44.3583C13.9074 46.5208 15.8106 48.6472 17.7701 50.6789C18.3017 51.2322 17.4604 52.0227 16.9403 51.4817Z" fill="#0E2365"/>
<path d="M12.7739 137.696C18.7518 133.128 23.0882 126.607 24.9823 119.33C25.1692 118.604 26.2922 118.874 26.1008 119.623C24.1412 127.145 19.6561 133.89 13.473 138.612C12.8801 139.076 12.1632 138.156 12.7739 137.696Z" fill="#0E2365"/>
<path d="M9.96844 128.733L12.7939 124.34C13.2045 123.689 14.1779 124.327 13.7636 124.962L10.9381 129.359C10.5253 130 9.55264 129.375 9.96844 128.733Z" fill="#0E2365"/>
<path d="M51.7676 161.062C50.6513 160.467 49.6366 159.693 48.7482 158.757C48.2212 158.209 49.0566 157.405 49.5825 157.964C50.3875 158.807 51.303 159.506 52.3088 160.043C52.9815 160.403 52.4441 161.418 51.7676 161.062Z" fill="#0E2365"/>
</svg>
