<svg width="224" height="208" viewBox="0 0 224 208" fill="none" xmlns="http://www.w3.org/2000/svg">
<path d="M198.35 59.1995C200.072 51.0833 191.631 43.8773 183.426 43.8341C184.244 37.4278 182.052 30.8297 177.62 26.4664C171.727 20.6654 162.221 19.0946 154.746 22.5599V23.8007C161.858 20.2333 171.121 21.6889 176.811 27.2872C181.032 31.4453 183.096 37.7615 182.256 43.8725C178.747 44.1132 174.727 46.2067 174.128 49.431C173.324 54.1816 180.964 57.0302 183.243 44.9887C190.761 45.0219 198.478 51.2719 197.294 58.5726C193.223 56.6142 190.829 60.5249 192.296 62.4828C193.576 64.1847 196.777 63.8208 198.022 60.3879C202.854 64.0119 206.046 70.7427 205.113 77.7376C205.013 78.4967 206.156 78.6419 206.258 77.891C207.276 70.2263 203.605 62.8548 198.35 59.1995ZM178.858 51.7649C176.028 53.8538 173.264 49.9558 177.113 46.9325C178.464 45.8546 180.123 45.221 182.055 45.0451C181.641 47.0762 180.496 50.5283 178.858 51.7649ZM193.218 61.7905C192.468 60.7825 193.895 58.0354 197.028 59.734C196.151 62.443 194.043 62.8819 193.218 61.7905Z" fill="#0E2365"/>
<path d="M210.904 77.8144H200.837C200.306 74.8985 202.655 71.9492 205.871 71.9492C209.065 71.9492 211.438 74.8842 210.904 77.8144Z" fill="#1552FD"/>
<path d="M161.51 161.266C161.441 160.504 160.286 160.619 160.355 161.381C161.672 175.605 149.803 187.428 142.599 193.2C134.332 199.851 126.527 203.961 118.792 205.762C106.992 208.487 93.8768 205.647 87.0649 195.579C90.6902 192.069 93.6459 187.844 95.6086 183.133C100.042 172.419 92.1218 167.2 86.3491 171.795C81.8234 175.421 79.5604 185.719 85.5641 195.394C80.8766 199.666 75.0576 202.737 68.8001 204.076C40.4906 210.011 17.0764 181.009 30.423 159.534C32.478 160.273 34.6256 160.712 36.773 160.804C47.2562 161.289 48.2953 152.561 44.393 150.182C39.9365 147.481 32.8706 153.785 29.9612 158.125C19.1777 153.785 11.4884 141.962 12.9663 125.983C13.0124 125.59 13.0355 125.198 13.1048 124.805L11.9964 124.344C11.9272 124.736 11.8809 125.128 11.8578 125.521C10.1953 142.101 18.0924 154.454 29.3377 159.095C21.9717 171.195 25.7355 186.135 35.8031 195.764C49.2882 208.602 71.2246 209.895 86.2106 196.364C93.2533 206.64 106.692 209.734 119.046 206.871C126.966 205.046 134.909 200.867 143.337 194.101C150.703 188.167 162.872 176.021 161.51 161.266ZM43.7926 151.175C46.6558 152.907 46.0325 160.088 36.8191 159.65C34.8795 159.557 32.9398 159.164 31.0695 158.541C33.5633 154.916 40.075 148.935 43.7926 151.175ZM90.875 171.333C96.0704 171.333 96.5784 177.753 94.5234 182.694C92.676 187.174 89.8821 191.215 86.4185 194.586C79.7452 183.618 83.9939 171.333 90.875 171.333Z" fill="#0E2365"/>
<path d="M165.57 163.659C165.57 166.499 163.284 168.785 160.466 168.785C157.649 168.785 155.363 166.499 155.363 163.659C155.363 160.842 157.649 158.556 160.466 158.556C163.284 158.556 165.57 160.842 165.57 163.659Z" fill="#81DBFD"/>
<path d="M157.025 23.8718C157.025 26.712 154.739 28.998 151.922 28.998C149.104 28.998 146.818 26.712 146.818 23.8718C146.818 21.0545 149.104 18.7686 151.922 18.7686C154.739 18.7686 157.025 21.0545 157.025 23.8718Z" fill="#1552FD"/>
<path d="M222.796 88.3204L210.604 161.565C210.327 163.112 208.942 164.22 207.395 164.151C104.802 159.832 109.315 161.159 107.619 159.464C107.511 159.355 100.297 152.824 100.184 152.721V152.467L100.345 151.289C100.715 152.513 101.846 153.414 103.185 153.46L200.906 157.247C202.476 157.316 203.839 156.208 204.093 154.661C216.476 78.1878 217.143 81.1177 215.777 79.1765C216.123 78.9454 216.331 78.8301 216.331 78.8301L221.734 85.434C222.542 86.1038 222.981 87.189 222.796 88.3204Z" fill="#C3D7F9"/>
<path d="M207.378 164.727L109.659 160.954C108.756 160.916 107.866 160.524 107.218 159.874C106.643 159.299 107.453 158.507 107.952 158.979C108.474 159.498 109.098 159.775 109.705 159.8L207.425 163.572C208.658 163.64 209.817 162.718 210.037 161.457L222.234 88.2361C222.367 87.3319 222.039 86.4479 221.355 85.8797C220.764 85.391 221.511 84.5066 222.093 84.9912C223.088 85.8188 223.567 87.0974 223.375 88.4143L211.174 161.651C210.853 163.497 209.212 164.805 207.378 164.727Z" fill="#0E2365"/>
<path d="M200.88 157.825L103.163 154.036C100.989 153.961 99.3546 152.041 99.6573 149.804L107.117 100.172C107.226 99.4175 108.371 99.5859 108.258 100.343L100.799 149.966C100.594 151.506 101.703 152.831 103.204 152.882L200.928 156.67C202.187 156.789 203.317 155.824 203.522 154.568L215.715 81.3449C215.964 79.8465 214.819 78.3909 213.213 78.3909H135.859C135.539 78.3909 135.281 78.1316 135.281 77.8136C135.281 77.4956 135.539 77.2363 135.859 77.2363H213.213C215.551 77.2363 217.219 79.3478 216.854 81.5343L204.661 154.755C204.363 156.574 202.753 157.901 200.88 157.825Z" fill="#0E2365"/>
<path d="M133.759 90.3984L132.628 97.1873C135.722 97.972 137.777 101.251 137.431 105.2C137.015 109.841 133.482 113.628 129.51 113.743C123.753 113.878 121.125 106.543 124.707 100.928L118.496 100.674C114.845 109.871 119.407 120.777 128.91 120.532C136.091 120.347 142.464 113.466 143.226 105.038C143.919 97.5566 139.809 91.4146 133.759 90.3984Z" fill="#FCA8D7"/>
<path d="M116.732 105.66C116.803 104.862 117.948 105.028 117.882 105.764C117.204 113.311 121.578 120.073 128.891 119.946C135.754 119.77 141.926 113.059 142.651 104.986C142.72 104.201 143.867 104.343 143.801 105.09C143.013 113.873 136.477 120.906 128.92 121.1C121.009 121.274 115.981 114.02 116.732 105.66Z" fill="#0E2365"/>
<path d="M140.109 95.8478C139.97 96.6328 139.531 97.3025 138.931 97.6952C138.699 97.8033 130.414 101.658 130.942 101.413C130.942 101.413 130.665 101.228 130.18 100.928C131.334 100.582 132.235 99.6116 132.443 98.3418L148.098 4.52314C148.26 3.48416 147.937 2.49141 147.267 1.77546C147.798 1.52121 148.121 1.38281 148.121 1.38281L153.525 11.4735V11.4966C154.455 13.0913 154.383 8.78831 140.109 95.8478Z" fill="#0E2365"/>
<path d="M129.059 101.667C-36.7752 95.2531 14.485 97.2357 4.28755 96.8413C2.03163 96.7609 0.293203 94.6932 0.62209 92.417L14.0155 3.39975C14.3132 1.52362 15.9582 0.114258 17.8422 0.114258H144.842C147.208 0.114258 149.039 2.2347 148.668 4.61293C125.699 142.266 135.561 83.1594 133.013 98.4333C132.683 100.449 130.841 101.777 129.059 101.667ZM17.8422 1.2688C16.5196 1.2688 15.3651 2.26099 15.1565 3.57564L1.76424 92.5861C1.5376 94.1563 2.73448 95.6292 4.33039 95.6867L129.115 100.512C130.243 100.592 131.631 99.7247 131.873 98.2506C153.188 -29.4954 146.009 13.5315 147.527 4.43253C147.789 2.75411 146.487 1.2688 144.842 1.2688H17.8422Z" fill="#0E2365"/>
<path d="M13.7879 75.0244C14.5524 71.0844 15.4025 67.2647 16.0395 63.4767C16.0891 63.1881 16.3586 62.9919 16.636 62.9942L35.5326 63.8646C36.3186 63.9036 36.2156 65.0943 35.4785 65.0191L17.0926 64.1713C16.4431 67.9235 15.6195 71.6207 14.9222 75.2454C14.7751 75.9931 13.6445 75.777 13.7879 75.0244Z" fill="#0E2365"/>
<path d="M38.2866 47.2391C38.2742 47.2391 38.2618 47.2391 38.2494 47.2368L24.4151 46.3371C24.0972 46.3168 23.8559 46.0417 23.8762 45.7237C23.8965 45.4058 24.1693 45.1104 24.4895 45.1871L38.3238 46.0868C38.6417 46.1071 38.883 46.3822 38.8627 46.7002C38.8424 47.0046 38.5888 47.2391 38.2866 47.2391Z" fill="#0E2365"/>
<path d="M42.9695 26.8021C8.74874 26.63 36.2717 26.781 23.9409 26.748C23.6203 26.7793 23.3072 26.4617 23.3569 26.0941L24.808 15.41C24.9081 14.667 26.0551 14.798 25.9513 15.5634L24.5915 25.5799C27.8806 25.592 44.0063 25.6514 42.9729 25.6476C43.7336 25.653 43.7318 26.8021 42.9695 26.8021Z" fill="#0E2365"/>
<path d="M118.108 87.4424C119.297 81.151 120.072 74.5439 120.355 68.2954H96.1275C95.3636 68.2954 95.364 67.1409 96.1275 67.1409H120.957C121.288 67.1409 121.546 67.4176 121.534 67.7407C121.273 74.2215 120.48 81.1082 119.242 87.6588C119.101 88.4085 117.964 88.194 118.108 87.4424Z" fill="#0E2365"/>
<path d="M102.641 29.5753C101.885 29.5753 101.874 28.4368 102.63 28.4207L125.605 27.9697L127.702 14.343C127.82 13.5973 128.96 13.7593 128.843 14.5188L126.673 28.6259C126.63 28.9033 126.394 29.1108 126.113 29.1153C124.595 29.145 104.46 29.5399 102.641 29.5753Z" fill="#0E2365"/>
<path d="M99.595 50.2395C98.8544 50.2395 98.8187 49.1322 99.5601 49.0849L113.09 48.2754C113.939 48.3445 113.848 49.386 113.16 49.4299C112.476 49.4708 98.7289 50.2913 99.595 50.2395Z" fill="#0E2365"/>
<path d="M99.5145 16.6L48.6452 17.6624C45.6202 17.7083 42.6416 20.1792 42.0643 23.1812L32.7355 71.0255C32.1121 74.1889 34.1441 76.9137 37.2613 77.0522L89.2852 79.6152C92.8412 79.777 96.1894 77.1443 96.7436 73.7269L104.918 22.2806C105.426 19.0709 103.001 16.5307 99.5145 16.6ZM40.979 55.624C40.8609 56.3327 39.7274 56.1961 39.8475 55.416L43.2649 36.897C43.4415 36.1326 44.5547 36.3884 44.3965 37.1282L40.979 55.624ZM92.0791 30.9625L86.5604 64.3059C86.191 66.4997 84.0204 68.2084 81.7576 68.116L47.7446 66.8921C45.6665 66.7996 44.2809 65.0447 44.6736 62.9668L50.7003 31.1474C51.0697 29.1616 53.0556 27.522 55.1106 27.4989L88.6386 27.1758C90.8785 27.1527 92.4256 28.8614 92.0791 30.9625Z" fill="#81DBFD"/>
<path d="M97.042 68.1604L103.728 26.1007C103.847 25.3432 104.988 25.5279 104.869 26.2811L98.183 68.3408C98.0635 69.0937 96.9223 68.9164 97.042 68.1604Z" fill="#0E2365"/>
<path d="M48.6513 18.2281C47.8963 18.2281 47.8822 17.0897 48.6388 17.0736C64.8201 16.7387 99.8381 16.0205 99.5234 16.0205C100.278 16.0205 100.293 17.159 99.5358 17.1751C92.5771 17.3191 103.688 17.0892 48.6513 18.2281Z" fill="#0E2365"/>
<path d="M32.1672 70.9246L41.5005 23.0628C41.6494 22.3106 42.7799 22.5368 42.6348 23.2838L33.3015 71.1455C33.1545 71.8927 32.0214 71.6751 32.1672 70.9246Z" fill="#0E2365"/>
<path d="M89.2786 80.1876C8.94073 76.2478 48.7318 78.1992 37.2271 77.635C36.5181 77.5999 36.4627 76.525 37.2835 76.4805L89.3068 79.0331C89.6259 79.0489 89.8705 79.3195 89.8548 79.6397C89.8401 79.9464 89.5853 80.1876 89.2786 80.1876Z" fill="#0E2365"/>
<path d="M55.1101 28.0686C54.3499 28.0686 54.3443 26.9195 55.1044 26.9141L88.6223 26.6074H88.628C88.9448 26.6074 89.2019 26.8622 89.2052 27.1802C89.2086 27.4981 88.9515 27.7597 88.6336 27.762L55.1157 28.0686H55.1101Z" fill="#0E2365"/>
<path d="M81.7534 68.7029C81.7466 68.7029 81.7398 68.7029 81.7319 68.7029L47.7202 67.4582C46.9355 67.4304 47.0207 66.2348 47.7631 66.3036L81.7748 67.5484C82.0927 67.5597 82.3419 67.828 82.3306 68.146C82.3194 68.4571 82.0623 68.7029 81.7534 68.7029Z" fill="#0E2365"/>
<path d="M85.9782 64.2159L91.5006 30.8558C91.6234 30.1137 92.7644 30.2845 92.6394 31.0452L87.117 64.4053C86.9941 65.1545 85.8539 64.9728 85.9782 64.2159Z" fill="#0E2365"/>
<path d="M53.4365 56.5081C55.0668 49.547 59.0423 42.843 64.9312 37.1176C65.271 36.7849 65.8796 36.9928 65.9098 37.4965L67.0881 56.5059C67.1377 57.2833 65.9828 57.3142 65.9358 56.578L64.8365 38.8449C59.6004 44.2095 56.0567 50.3836 54.5594 56.7697C54.385 57.5183 53.2612 57.247 53.4365 56.5081Z" fill="#0E2365"/>
<path d="M65.148 50.2374C61.7385 50.1815 56.4144 50.0942 56.7573 50.0999C55.9995 50.0891 56.0083 48.9453 56.7663 48.9453C60.1758 49.0012 65.4998 49.0885 65.157 49.0829C65.4761 49.0874 65.7309 49.3512 65.7253 49.6692C65.7196 49.9849 65.4626 50.2374 65.148 50.2374Z" fill="#0E2365"/>
<path d="M82.0531 39.6448C81.3142 39.6448 79.5824 39.622 77.8043 39.622L75.2875 54.2384C75.1489 54.9775 74.0175 54.7695 74.1329 54.0307L76.6498 39.622C74.5254 39.5989 72.632 39.5989 72.632 39.5989C71.8701 39.5989 71.8701 38.4443 72.632 38.4443C74.4562 38.4443 82.0531 38.4903 82.0531 38.4903C82.8247 38.4903 82.8069 39.6448 82.0531 39.6448Z" fill="#0E2365"/>
<path d="M78.1162 56.2842C75.878 56.2331 70.4594 56.1095 70.8022 56.1173C70.4842 56.1106 70.2316 55.8445 70.2384 55.5265C70.2452 55.2086 70.5541 54.9447 70.8292 54.9628L78.1297 55.1297C78.8809 55.1456 78.874 56.2842 78.1162 56.2842Z" fill="#0E2365"/>
<path d="M197.512 108.041C196.635 109.934 195.273 112.128 193.171 112.128C191.486 112.105 190.1 110.558 188.415 110.765C187.214 110.904 186.29 111.943 185.828 113.028C184.787 115.527 185.685 118.557 182.18 123.65C181.187 125.082 179.524 126.537 177.862 126.006C174.571 124.969 176.629 120.322 172.736 104.231C171.923 100.843 169.621 100.821 168.395 104.023C165.199 112.164 165.342 112.164 164.792 112.566C164.054 113.074 163.015 112.52 162.599 111.781C162.16 111.043 162.091 110.142 161.721 109.357C161.122 108.157 159.691 107.46 158.65 109.334C154.656 116.33 152.601 124.32 152.716 132.217C148.444 128.995 148.249 128.707 147.59 128.707C146.62 128.707 146.158 129.954 146.366 130.854C146.62 132.055 147.451 133.048 147.844 134.203C148.236 135.357 147.936 136.974 146.736 137.343C145.95 137.574 145.165 137.181 144.38 137.02C141.886 136.535 139.139 138.867 139.323 141.361L187.537 142.931C187.233 142.626 187.386 143.038 189.407 130.508C189.511 129.782 190.655 129.884 190.539 130.693C188.406 143.346 188.624 142.801 188.368 142.954L197.235 143.254C200.353 126.352 202.454 110.996 204.139 93.9551C201.946 98.6426 199.729 103.33 197.512 108.041ZM172.02 140.992C171.903 141.754 170.812 141.582 170.865 140.83L171.928 133.556C172.043 132.804 173.196 132.98 173.082 133.718L172.02 140.992Z" fill="#01B990"/>
<path d="M144.261 137.593C143.524 137.444 143.726 136.325 144.489 136.461C145.581 136.683 146.661 137.282 147.218 136.2C148.107 134.477 146.213 132.938 145.795 130.982C145.524 129.705 146.231 128.128 147.579 128.122C148.734 128.433 147.517 127.581 152.146 131.07C152.224 123.414 154.286 115.828 158.139 109.054C159.395 106.836 161.404 107.413 162.229 109.104C162.82 110.313 162.76 111.887 163.969 112.164C164.768 112.326 164.596 112.126 167.846 103.809C169.356 99.9185 172.398 100.361 173.295 104.091C177.067 119.768 175.299 124.597 178.031 125.459C179.347 125.874 180.796 124.627 181.705 123.317C185.059 118.479 184.275 115.285 185.292 112.816C185.764 111.672 186.812 110.382 188.339 110.198C190.282 109.959 191.647 111.531 193.185 111.542C193.191 111.542 193.198 111.542 193.206 111.542C194.588 111.542 195.792 110.351 196.994 107.796C197.318 107.106 198.366 107.596 198.038 108.288C197.148 110.182 195.679 112.696 193.207 112.696C192.899 112.629 192.628 112.864 190.689 111.952C189.925 111.591 189.199 111.255 188.478 111.343C187.445 111.469 186.69 112.453 186.359 113.258C185.453 115.454 186.123 118.969 182.654 123.975C182.099 124.776 180.097 127.317 177.684 126.56C173.934 125.378 176.113 120.733 172.172 104.362C171.553 101.781 170.042 101.347 168.921 104.229C165.697 112.521 165.824 112.552 165.11 113.043C164.092 113.741 162.697 113.118 162.094 112.065C161.608 111.22 161.554 110.355 161.192 109.609C160.748 108.693 159.918 108.267 159.142 109.625C155.195 116.563 153.177 124.377 153.304 132.22C153.312 132.696 152.769 132.978 152.38 132.691C146.793 128.6 148.578 129.639 147.585 129.277C147.054 129.277 146.805 130.177 146.925 130.743C147.147 131.791 147.999 132.847 148.396 134.01C148.91 135.508 148.42 137.434 146.889 137.886C146.154 138.109 144.492 137.639 144.261 137.593Z" fill="#0E2365"/>
<path d="M11.0243 124.578L21.0366 128.711C21.7893 129.021 22.6504 128.654 22.9473 127.896L29.6317 110.83C29.9257 110.079 30.7742 109.71 31.5237 110.008L39.8423 113.307C40.7871 113.682 41.8153 112.998 41.8344 111.982L42.7001 65.9177C42.7246 64.6104 41.1469 63.9362 40.2191 64.8575L6.79567 98.0446C6.05198 98.783 6.30885 100.042 7.28243 100.43L16.2094 103.987C16.9588 104.286 17.3224 105.137 17.0202 105.885L10.23 122.688C9.93037 123.429 10.285 124.273 11.0243 124.578Z" fill="#1552FD"/>
<path d="M23.4949 128.108C23.287 128.616 22.8945 129.031 22.3864 129.239C21.2172 129.728 21.3297 129.418 11.857 125.522C11.5338 125.383 11.1643 125.244 10.7949 125.106C9.77886 124.69 9.27079 123.513 9.68641 122.474C9.9866 121.758 11.0488 122.196 10.7718 122.912C10.587 123.351 10.7949 123.859 11.2336 124.044C11.4706 124.141 21.4918 128.275 21.255 128.177C21.7399 128.362 22.2249 128.131 22.4095 127.692C22.6866 126.976 23.7719 127.392 23.4949 128.108Z" fill="#0E2365"/>
<path d="M17.6677 96.4874L30.1748 83.3297C30.7069 82.7733 31.5365 83.5742 31.0114 84.1234L18.5042 97.2812C17.9741 97.8375 17.1419 97.0374 17.6677 96.4874Z" fill="#0E2365"/>
<path d="M43.0422 128.603L42.6025 119.563C42.5648 118.804 43.7165 118.739 43.7548 119.509L44.1945 128.549C44.2325 129.315 43.0787 129.373 43.0422 128.603Z" fill="#0E2365"/>
<path d="M53.1968 122.504L47.0092 118.449C46.3749 118.035 46.9966 117.064 47.6428 117.484L53.8305 121.538C54.4646 121.952 53.844 122.92 53.1968 122.504Z" fill="#0E2365"/>
<path d="M59.0074 114.412L49.2716 112.771C48.5036 112.644 48.7335 111.486 49.4633 111.634L59.1991 113.276C59.9676 113.402 59.7381 114.563 59.0074 114.412Z" fill="#0E2365"/>
<path d="M118.656 85.0654C116.578 85.0654 114.73 86.8663 114.499 89.1063C114.246 91.3461 115.7 93.1241 117.778 93.1241C119.81 93.1241 121.681 91.3461 121.935 89.1063C122.166 86.8663 120.688 85.0654 118.656 85.0654ZM118.356 91.0687H118.263C116.505 91.0687 115.581 88.8625 116.624 88.7134C116.924 88.6444 117.247 88.829 117.316 89.1523C117.409 89.568 117.825 89.9142 118.263 89.9142C118.286 89.9142 118.286 89.9142 118.309 89.9142C118.748 89.8911 119.164 89.4756 119.21 89.037C119.256 88.7365 119.533 88.4828 119.833 88.5291C120.979 88.6918 120.113 90.9488 118.356 91.0687Z" fill="#0E2365"/>
<path d="M114.916 44.0791C112.838 44.0791 110.991 45.88 110.737 48.12C110.506 50.3598 111.961 52.1378 114.016 52.1378C116.071 52.1378 117.941 50.3598 118.172 48.12C118.426 45.88 116.948 44.0791 114.916 44.0791ZM116.233 49.8518C115.928 50.5373 114.85 50.1068 115.17 49.413C115.637 48.1172 115.076 46.8142 113.947 46.2495C113.272 45.9119 113.791 44.8784 114.455 45.2105C116.253 46.1352 116.922 48.1497 116.233 49.8518Z" fill="#0E2365"/>
<path d="M25.9703 10.3887C23.8922 10.3887 22.0449 12.2129 21.8139 14.4527C21.56 16.6924 23.0147 18.4705 25.0928 18.4705C27.1248 18.4705 28.9952 16.6924 29.2493 14.4527C29.5032 12.2129 28.0023 10.3887 25.9703 10.3887ZM25.4623 13.7136C24.824 13.9692 24.3345 14.923 24.6541 15.7228C24.9435 16.474 23.8666 16.8713 23.592 16.1845C22.5978 13.9473 25.3037 11.7584 25.7625 12.9517C25.9011 13.2519 25.7625 13.5983 25.4623 13.7136Z" fill="#0E2365"/>
<path d="M24.3765 41.7236C22.2984 41.7236 20.4512 43.5476 20.2202 45.7877C19.9662 48.0274 21.421 49.8055 23.499 49.8055C25.5311 49.8055 27.4014 48.0274 27.6555 45.7877C27.8864 43.5476 26.4085 41.7236 24.3765 41.7236ZM24.8384 47.8887H24.7692C22.0097 47.5209 20.847 43.8422 22.2753 43.7322C22.5986 43.7322 22.8526 44.0096 22.8295 44.3095C22.8295 45.4641 23.7763 46.5955 24.9077 46.7342C25.632 46.8378 25.5621 47.8887 24.8384 47.8887Z" fill="#0E2365"/>
<path d="M14.1695 74.5127C12.0912 74.5127 10.2671 76.337 10.0131 78.5767C9.75918 80.7934 11.2139 82.5714 13.292 82.5714C15.324 82.5714 17.2175 80.7934 17.4484 78.5767C17.7025 76.337 16.2015 74.5127 14.1695 74.5127ZM13.7307 80.1005C13.6153 80.1005 13.4999 80.0774 13.4074 79.9852C11.4168 78.5687 11.8632 75.3831 12.9918 75.7597C13.292 75.8981 13.4537 76.2214 13.3151 76.5216C12.9918 77.3991 13.3151 78.5074 14.0772 79.0615C14.51 79.3767 14.3469 80.1005 13.7307 80.1005Z" fill="#0E2365"/>
<path d="M129.695 9.07227C127.617 9.07227 125.77 10.8734 125.539 13.1132C125.285 15.3532 126.739 17.131 128.818 17.131C130.85 17.131 132.72 15.3532 132.974 13.1132C133.228 10.8734 131.727 9.07227 129.695 9.07227ZM129.718 12.028C129.418 11.7049 128.887 11.6356 128.494 11.8433C128.125 12.0511 127.894 12.559 128.009 12.9748C128.162 13.6855 127.086 14.0128 126.878 13.2519C126.376 11.195 128.914 9.61628 130.549 11.1967C131.067 11.772 130.266 12.5217 129.718 12.028Z" fill="#0E2365"/>
<path d="M128.259 140.132C122.548 139.799 112.96 139.24 113.559 139.275C112.817 139.227 112.841 138.104 113.627 138.12L128.293 138.977C128.611 138.997 128.855 139.27 128.836 139.588C128.818 139.895 128.564 140.132 128.259 140.132Z" fill="#0E2365"/>
<path d="M128.451 131.18C123.716 130.718 114.178 129.787 114.775 129.845C113.998 129.768 114.153 128.598 114.888 128.695L128.506 130.028C129.232 130.1 129.178 131.18 128.451 131.18Z" fill="#0E2365"/>
<path d="M147.923 106.271C150.081 101.353 149.253 95.2489 145.863 91.084C145.381 90.4922 146.273 89.7627 146.758 90.3534C150.415 94.8475 151.308 101.43 148.98 106.736C148.676 107.431 147.616 106.976 147.923 106.271Z" fill="#0E2365"/>
<path d="M154.381 96.5458C154.615 94.9132 154.139 93.1701 153.108 91.8825C152.63 91.2852 153.532 90.5669 154.01 91.161C155.236 92.6921 155.802 94.7667 155.524 96.7082C155.415 97.4683 154.274 97.2975 154.381 96.5458Z" fill="#0E2365"/>
<path d="M67.0753 24.069C66.3241 24.069 66.3046 22.941 67.055 22.9145L78.1709 22.5176C78.9935 22.5737 78.9208 23.6471 78.2115 23.6721C75.8926 23.7548 66.4757 24.0904 67.0753 24.069Z" fill="#0E2365"/>
<path d="M93.1281 93.8463C87.3204 93.6105 70.8221 92.9408 71.8547 92.9827C71.2141 92.9554 71.0066 92.0003 71.902 91.8281L93.1517 92.6918C93.9007 92.7236 93.8759 93.8463 93.1281 93.8463Z" fill="#0E2365"/>
<path d="M196.646 143.571H196.632L162.367 142.696C162.048 142.687 161.797 142.423 161.805 142.103C161.813 141.785 162.119 141.485 162.397 141.542L196.166 142.403L204.09 98.677C204.225 97.9267 205.362 98.13 205.227 98.8844L197.215 143.098C197.165 143.373 196.925 143.571 196.646 143.571Z" fill="#0E2365"/>
<path d="M178.982 86.1749C178.668 86.1749 178.411 85.9246 178.404 85.6112C178.398 85.291 178.65 85.0271 178.969 85.0204L202.067 84.5107C202.876 84.5357 202.822 85.6498 202.092 85.6653L178.994 86.1749H178.982Z" fill="#0E2365"/>
<path d="M181.301 179.674C180.878 179.038 181.834 178.399 182.261 179.033C185.329 183.636 189.146 188.139 194.672 187.746C198.177 187.46 201.454 184.348 200.25 180.756C198.913 179.937 197.726 178.873 196.783 177.599C196.468 177.171 196.855 176.587 197.347 176.688C199.125 176.998 200.506 178.327 201.188 179.976C209.35 184.638 218.655 178.432 218.525 169.88C218.514 169.11 219.668 169.096 219.679 169.862C219.816 178.777 210.554 185.631 201.601 181.48C202.143 185.297 198.746 188.573 194.764 188.896C188.807 189.402 184.596 184.618 181.301 179.674Z" fill="#0E2365"/>
<path d="M155.787 166.646C155.499 165.942 156.569 165.499 156.856 166.213C157.599 168.035 159.866 168.663 161.449 167.509C162.054 167.054 162.752 167.982 162.132 168.438C159.964 170.04 156.816 169.181 155.787 166.646Z" fill="#0E2365"/>
<path d="M200.871 77.5721C200.574 77.5721 200.321 77.3421 200.298 77.0399C200.155 75.245 200.949 73.441 202.369 72.3315C205.415 69.9491 209.958 71.4482 210.964 75.2044C211.163 75.939 210.047 76.2437 209.85 75.502C209.488 74.1558 208.397 72.999 207.071 72.5548C204.196 71.5907 201.208 73.8956 201.448 76.9497C201.474 77.2677 201.236 77.545 200.918 77.5698C200.902 77.5721 200.887 77.5721 200.871 77.5721Z" fill="#0E2365"/>
<path d="M153.505 28.7772C156.808 27.2663 157.595 22.8965 155.029 20.3256C154.489 19.7853 155.306 18.9693 155.846 19.5093C158.979 22.6472 158.017 27.982 153.985 29.828C153.295 30.148 152.808 29.0974 153.505 28.7772Z" fill="#0E2365"/>
</svg>
