<svg width="165" height="40" viewBox="0 0 165 40" fill="none" xmlns="http://www.w3.org/2000/svg">
<g clip-path="url(#clip0_1_147479)">
<path d="M42 14.7674C42 6.60957 35.246 0 26.9132 0H0C0 8.15449 6.75405 14.7674 15.0902 14.7674H30.5614C38.2969 14.7674 42 20.974 42 20.974V14.7674Z" fill="#1552FD"/>
<path d="M26.9132 19.0261H0C0 27.1806 6.75404 33.7935 15.0902 33.7935H42.0034C42.0034 25.6391 35.2494 19.0261 26.9132 19.0261Z" fill="#81DBFD"/>
<path d="M41.9992 40.0002V33.7937H30.5605C38.2961 33.7937 41.9992 40.0002 41.9992 40.0002Z" fill="#81DBFD"/>
</g>
<path d="M60.5568 31V7.72727H74.9886V10.75H64.0682V17.8409H73.9545V20.8523H64.0682V31H60.5568ZM77.1141 31V13.5455H80.5118V31H77.1141ZM78.83 10.8523C78.2391 10.8523 77.7315 10.6553 77.3073 10.2614C76.8906 9.85985 76.6823 9.38257 76.6823 8.82954C76.6823 8.26894 76.8906 7.79167 77.3073 7.39773C77.7315 6.99621 78.2391 6.79545 78.83 6.79545C79.4209 6.79545 79.9247 6.99621 80.3414 7.39773C80.7656 7.79167 80.9777 8.26894 80.9777 8.82954C80.9777 9.38257 80.7656 9.85985 80.3414 10.2614C79.9247 10.6553 79.4209 10.8523 78.83 10.8523ZM86.5606 20.6364V31H83.1628V13.5455H86.4242V16.3864H86.6401C87.0416 15.4621 87.6704 14.7197 88.5265 14.1591C89.3901 13.5985 90.4772 13.3182 91.7878 13.3182C92.9772 13.3182 94.0189 13.5682 94.9128 14.0682C95.8068 14.5606 96.5 15.2955 96.9924 16.2727C97.4848 17.25 97.731 18.4583 97.731 19.8977V31H94.3333V20.3068C94.3333 19.0417 94.0038 18.053 93.3447 17.3409C92.6856 16.6212 91.7803 16.2614 90.6287 16.2614C89.8409 16.2614 89.1401 16.4318 88.5265 16.7727C87.9204 17.1136 87.4394 17.6136 87.0833 18.2727C86.7348 18.9242 86.5606 19.7121 86.5606 20.6364ZM100.641 31V7.72727H115.072V10.75H104.152V17.8409H114.038V20.8523H104.152V31H100.641ZM120.596 7.72727V31H117.198V7.72727H120.596ZM130.599 31.3523C128.963 31.3523 127.534 30.9773 126.315 30.2273C125.095 29.4773 124.148 28.428 123.474 27.0795C122.8 25.7311 122.463 24.1553 122.463 22.3523C122.463 20.5417 122.8 18.9583 123.474 17.6023C124.148 16.2462 125.095 15.1932 126.315 14.4432C127.534 13.6932 128.963 13.3182 130.599 13.3182C132.235 13.3182 133.663 13.6932 134.883 14.4432C136.103 15.1932 137.05 16.2462 137.724 17.6023C138.398 18.9583 138.735 20.5417 138.735 22.3523C138.735 24.1553 138.398 25.7311 137.724 27.0795C137.05 28.428 136.103 29.4773 134.883 30.2273C133.663 30.9773 132.235 31.3523 130.599 31.3523ZM130.61 28.5C131.671 28.5 132.55 28.2197 133.247 27.6591C133.944 27.0985 134.459 26.3523 134.792 25.4205C135.133 24.4886 135.303 23.4621 135.303 22.3409C135.303 21.2273 135.133 20.2045 134.792 19.2727C134.459 18.3333 133.944 17.5795 133.247 17.0114C132.55 16.4432 131.671 16.1591 130.61 16.1591C129.542 16.1591 128.656 16.4432 127.951 17.0114C127.254 17.5795 126.735 18.3333 126.394 19.2727C126.061 20.2045 125.894 21.2273 125.894 22.3409C125.894 23.4621 126.061 24.4886 126.394 25.4205C126.735 26.3523 127.254 27.0985 127.951 27.6591C128.656 28.2197 129.542 28.5 130.61 28.5ZM143.861 31L138.724 13.5455H142.236L145.656 26.3636H145.827L149.258 13.5455H152.77L156.179 26.3068H156.349L159.747 13.5455H163.258L158.133 31H154.668L151.122 18.3977H150.861L147.315 31H143.861Z" fill="#11122C"/>
<defs>
<clipPath id="clip0_1_147479">
<rect width="42" height="40" fill="white"/>
</clipPath>
</defs>
</svg>
